<svg width="27" height="27" viewBox="0 0 27 27" fill="none" xmlns="http://www.w3.org/2000/svg">
<path fill-rule="evenodd" clip-rule="evenodd" d="M13.1772 0.928589C5.89749 0.928589 -0.00268555 6.82877 -0.00268555 14.1085C-0.00268555 19.9307 3.77264 24.8716 9.01078 26.6158C9.67017 26.7348 9.90803 26.3291 9.90803 25.9802C9.90803 25.6671 9.89746 24.8372 9.89349 23.7391C6.22653 24.5346 5.45217 21.971 5.45217 21.971C4.85489 20.4487 3.98935 20.0431 3.98935 20.0431C2.79346 19.2251 4.08053 19.2436 4.08053 19.2436C5.4046 19.3361 6.09835 20.602 6.09835 20.602C7.27442 22.6159 9.18521 22.0344 9.93314 21.6975C10.0534 20.8452 10.397 20.2637 10.7722 19.9347C7.8466 19.603 4.77031 18.4719 4.77031 13.4201C4.77031 11.9837 5.28435 10.8049 6.12346 9.88523C5.98999 9.55091 5.5341 8.20966 6.25428 6.39666C6.25428 6.39666 7.36031 6.0412 9.87764 7.74584C10.9527 7.45337 12.0617 7.30408 13.1759 7.30184C14.2901 7.30365 15.3992 7.45294 16.4742 7.74584C18.9928 6.03987 20.0976 6.39666 20.0976 6.39666C20.8177 8.20966 20.3658 9.55091 20.2284 9.88523C21.0741 10.8049 21.5815 11.9823 21.5815 13.4201C21.5815 18.4851 18.5026 19.5977 15.5664 19.9241C16.0355 20.3311 16.4583 21.1346 16.4583 22.3635C16.4583 24.1263 16.4425 25.5481 16.4425 25.9802C16.4425 26.3331 16.6777 26.7427 17.3503 26.6132C22.5858 24.8663 26.3572 19.9294 26.3572 14.1085C26.3572 6.82877 20.457 0.928589 13.1772 0.928589Z" fill="black"/>
</svg>
