<svg width="25" height="25" viewBox="0 0 25 25" fill="none" xmlns="http://www.w3.org/2000/svg">
<path d="M22.714 0.714355H1.57118C1.22072 0.714355 0.884609 0.854831 0.636793 1.10488C0.388977 1.35493 0.249756 1.69407 0.249756 2.04769V23.381C0.249756 23.7346 0.388977 24.0738 0.636793 24.3238C0.884609 24.5739 1.22072 24.7144 1.57118 24.7144H22.714C23.0645 24.7144 23.4006 24.5739 23.6484 24.3238C23.8962 24.0738 24.0355 23.7346 24.0355 23.381V2.04769C24.0355 1.69407 23.8962 1.35493 23.6484 1.10488C23.4006 0.854831 23.0645 0.714355 22.714 0.714355ZM7.30486 21.1637H3.77401V9.71036H7.30486V21.1637ZM5.53943 8.14636C4.99691 8.14636 4.47662 7.9289 4.093 7.54183C3.70938 7.15475 3.49386 6.62976 3.49386 6.08236C3.49386 5.53495 3.70938 5.00996 4.093 4.62289C4.47662 4.23581 4.99691 4.01836 5.53943 4.01836C6.08195 4.01836 6.60225 4.23581 6.98587 4.62289C7.36949 5.00996 7.585 5.53495 7.585 6.08236C7.585 6.62976 7.36949 7.15475 6.98587 7.54183C6.60225 7.9289 6.08195 8.14636 5.53943 8.14636ZM20.5178 21.1637H16.9909V15.5944C16.9909 14.2664 16.9671 12.5584 15.1568 12.5584C13.32 12.5584 13.0412 14.0064 13.0412 15.501V21.165H9.51693V9.71169H12.8998V11.277H12.9487C13.4178 10.377 14.5701 9.42769 16.284 9.42769C19.8571 9.42769 20.5165 11.7984 20.5165 14.8837V21.1637H20.5178Z" fill="black"/>
</svg>
